<svg id="visual" viewBox="0 0 900 450" width="900" height="450" xmlns="http://www.w3.org/2000/svg" xmlns:xlink="http://www.w3.org/1999/xlink" version="1.1"><rect x="0" y="0" width="900" height="450" fill="#001220"></rect><defs><linearGradient id="grad1_0" x1="50%" y1="100%" x2="100%" y2="0%"><stop offset="10%" stop-color="#001220" stop-opacity="1"></stop><stop offset="90%" stop-color="#001220" stop-opacity="1"></stop></linearGradient></defs><defs><linearGradient id="grad2_0" x1="0%" y1="100%" x2="50%" y2="0%"><stop offset="10%" stop-color="#001220" stop-opacity="1"></stop><stop offset="90%" stop-color="#001220" stop-opacity="1"></stop></linearGradient></defs><g transform="translate(900, 450)"><path d="M-361 0C-332.6 -55.3 -304.2 -110.6 -272.8 -157.5C-241.4 -204.4 -207 -242.8 -161 -278.9C-115 -315 -57.5 -348.7 0 -382.5L0 0Z" fill="#FCAF3C"></path></g><g transform="translate(0, 0)"><path d="M382.5 0C337.9 49.2 293.3 98.4 260.7 150.5C228.1 202.6 207.4 257.6 166 287.5C124.6 317.4 62.3 322.2 0 327L0 0Z" fill="#FCAF3C"></path></g></svg>